<svg xmlns="http://www.w3.org/2000/svg" xml:space="preserve" id="Layer_1" x="0px" y="0px" style="enable-background:new 0 0 400 400" version="1.1" viewBox="0 0 400 400"><style>.st0{fill:#fff}</style><path d="M342.4 165C325.7 98.1 265.8 53.5 200.2 53.5c-11.7 0-23.6 1.4-35.4 4.4C86.3 77.4 38.8 157.2 58.4 236c16.7 66.8 76.5 111.5 142.2 111.5 11.7 0 23.6-1.4 35.5-4.4 78.4-19.6 126.1-99.3 106.3-178.1z"/><path d="M346.5 164c-4.2-16.8-11.1-32.6-20.6-46.9-9.2-13.8-20.5-26-33.6-36.2-26.3-20.4-59-31.6-92-31.6-12.2 0-24.5 1.5-36.5 4.5-39 9.7-71.9 34.2-92.5 68.8-20.8 34.6-26.7 75.2-17 114.4 4.2 16.8 11.1 32.6 20.6 46.9 9.2 13.8 20.5 26 33.6 36.2 26.3 20.4 59 31.6 92 31.6 12.3 0 24.6-1.5 36.6-4.5 39-9.8 71.9-34.2 92.5-68.8 20.7-34.6 26.7-75.3 16.9-114.4zM200.6 347.5c-65.7 0-125.5-44.7-142.2-111.5C38.8 157.2 86.3 77.4 164.8 57.9c11.9-3 23.7-4.4 35.4-4.4 65.7 0 125.5 44.7 142.2 111.5 19.8 78.8-27.9 158.5-106.2 178.1-12 3-23.9 4.4-35.6 4.4z" class="st0"/><path d="M190.1 187.8s.1 0 0 0h5.1c5.1-.2 6.2-.4 8.5-1 8.3-2.5 8.4-9.6 8.5-13.8v-17.5c0-10.4-4.4-11.9-14.5-11.9H190c-.7.1-.9.5-.9 1.2l.1 42.1c-.1.5.1.9.9.9zm11.6 15.1c-3.8-.4-7.6-.4-11.4-.4-.8 0-.9.6-.9 1s.1 44.3.1 52.2c0 .9.4 1.5 1.4 1.5h11.6c6.3-.2 8.8-1.1 10.8-2.5 3.4-2.6 3.9-6.8 3.9-15.6l-.1-19.4c0-2.7-.1-5.6-1-8.3-1-2.6-2.5-4.5-4.7-5.8-2.9-1.7-6.4-2.3-9.7-2.7z" class="st0"/><path d="M204.6 284.9c27.8-8.9 43.3-21.3 59.2-35.4 6.5-5.8 12.1-10.1 16.9-12.9 1-5.8 1.4-11.6 1.2-17.5-11.3 5.5-25.9 10.1-42.2 13.6v-6.8c17.9-3.9 31.9-9 41.7-14-.4-3.5-1-7.1-1.7-10.6-.5-2.4-1.1-4.8-1.7-7.1-3.6 1.4-7.6 2.4-12 3-2.1.3-4.2.4-6.3.4-9.1 0-18.8-2.4-28.6-6.2 1.5-2.5 1.8-3.6 2.6-6.2 11.1 4.3 21.9 6.6 31.4 5.3 4.1-.6 7.8-1.5 11.1-2.9-5.2-17-12.7-31.7-22.3-43.9-9.7-12.2-21.5-22-35.2-29-9.1-4.6-17.7-7.4-25-9.1-12-2.8-24.6-1.5-35.7 3.7-14.9 7-27.9 17.5-37.7 30.6 9.8-1.8 26.5-2.2 46 8.4v7.7c-1-.6-2-1.1-2.9-1.6-24.9-13.6-44.6-7.6-48.9-5.9-8 13.2-13.1 28.3-14.3 44.6 2.4 3.2 10.2 12.4 24.1 21 9.7 6 23.6 12.4 42.1 15.6v6.8c-20.3-3.3-35.5-10.3-46-16.9-9.4-5.9-16.1-12-20.5-16.5.7 29.5 14.2 55.9 35.2 73.9 8.7 7.4 19.5 11.8 30.9 12.4 10.5.5 24.6 0 38.6-4.5zM173.9 130c.7-.6 1.5-1 2.3-1l28.2-.1h.2c7.8 0 14 2.3 18.1 6.9 4.7 5.3 5.3 11.9 5.5 17.6l.1 20.8c0 1.8.1 6.3-1.1 10-1.3 4.1-3.8 7.4-7.3 9.7 2.3.9 4.2 2.1 5.8 3.4 7.6 6.3 7.6 15.3 7.6 22.6v23.4c-.2 8.3-.9 15.7-7.8 21.9-7.8 6.6-17.1 6.7-20.2 6.7l-28.7.1c-.7 0-1.3-.2-1.8-.5-1-.6-1.5-1.6-1.5-2.7l-.3-136.6c0-.8.2-1.6.9-2.2zm114.7 85.7c.4 6.2.1 12-.5 17.4 0 0 3-1.1 5.5-1.2 1.6-.1 2.2.1 2.4.2 2.7-8.1 4.4-16.7 4.9-25.6-1.7 1.7-3.7 3.4-6.2 5.2-1.9 1.4-3.9 2.7-6.1 4zm4.3-32.5c-2.3 3.1-5.2 5.7-8.7 7.9.8 2.8 1.5 5.8 2.2 8.7.6 2.9 1.1 6 1.5 8.8 4.2-2.4 10.1-7.2 13-13.1-.4-7.3-1.5-14.4-3.3-21.2-1.1 2.9-2.5 6-4.7 8.9z" class="st0"/><path d="M206.7 291.3c-11.9 3.8-23.8 5-33.7 5h-3.4c9.7 3.1 20.1 4.8 30.8 4.8 15.8 0 30.8-3.7 44.1-10.2 10.9-5.3 19.9-13.8 25.7-24.4 1.2-2.1 2.3-4.4 3.5-6.9 2-4.4 3.6-8.9 4.9-13.4-2.9 2.1-6.3 4.9-10.4 8.4-15.8 14-32.5 27.4-61.5 36.7zm80-50.3c-1.7 8.1-4.2 15.2-6.7 20.9 5.3-6.9 9.8-14.5 13.2-22.6-.6-.2-2.4-.3-6.5 1.7zm-27.5-101.4c9.9 12.5 17.6 27.5 23 44.7 2.1-1.5 3.8-3.2 5.3-5.2.2-.3.4-.5.6-.8 5-7.3 5.4-17 1.2-24.8-16.8-31.8-50.3-53.5-88.8-53.5h-1.8c6.9 1.9 14.8 4.6 23.1 8.9 14.5 7.4 27.1 17.8 37.4 30.7zm-65.2 172-10.6-1.2c-.4 0-.8.3-.9.7l-2.7 24.6c0 .2 0 .4.2.6.1.2.3.3.5.3l10.6 1.2h.1c.2 0 .4-.1.5-.2.2-.1.3-.3.3-.5l.2-1.5c0-.4-.3-.8-.7-.9l-7.7-.9 1-9 6.3.7c.2 0 .4 0 .6-.2.2-.1.3-.3.3-.5l.2-1.5c0-.4-.3-.8-.7-.9l-6.2-.7.9-7.9 7.7.9c.4 0 .8-.3.9-.7l.2-1.5c0-.2 0-.4-.2-.6-.4-.2-.6-.3-.8-.3zm28.1-2-12.6 1.7c-.4.1-.7.5-.7.9l.2 1.6c0 .2.1.4.3.5.2.1.4.2.6.2l4.4-.6 3.1 22.2c.1.4.4.7.8.7h.1l2.1-.3c.2 0 .4-.1.5-.3.1-.2.2-.4.2-.6l-3.1-22.2 4.5-.6c.2 0 .4-.1.5-.3.1-.2.2-.4.2-.6l-.2-1.6c-.1-.4-.5-.7-.9-.7zm-55.1-3-1.9-.7c-.2-.1-.4-.1-.6 0-.2.1-.3.3-.4.5l-6.1 16.8 1.2-19c0-.3-.2-.7-.5-.8l-2.9-1.1c-.4-.2-.9.1-1 .5L146 326c-.2.4.1.9.5 1l1.8.7c.2.1.4.1.6 0 .2-.1.3-.2.4-.4l6.1-16.5v-.1l-1.2 18.7c0 .3.2.7.5.8l3 1.1c.1 0 .2.1.3.1.1 0 .2 0 .3-.1.2-.1.3-.2.4-.4l8.7-23.1c.1-.2.1-.4 0-.6-.1-.4-.2-.5-.4-.6zm81.4 7.6c-5.4-1.8-6.2-2.4-6.9-4.3-.4-1-.5-1.7-.3-2.3.2-.6.8-1.1 1.8-1.5 2.6-1 3.1.3 3.7 1.8l.8 2c.1.2.2.4.4.4.2.1.4.1.6 0l1.9-.8c.2-.1.4-.2.4-.4.1-.2.1-.4 0-.6l-.7-1.7c-.5-1.2-1.1-2.6-2.3-3.5-1.5-1.1-3.5-1.1-6.1-.1-2.4 1-3.8 2.4-4.2 4.2-.3 1.5.1 3 .6 4 1.4 3.6 4 4.4 8.3 5.7 4.1 1.3 5.1 1.8 6.1 4.1.4 1.1.5 1.9.3 2.5-.2.7-.9 1.2-2 1.6-.7.3-2.1.7-3.1.2-.9-.4-1.1-1-1.8-2.8l-.7.3.7-.3-.7-1.8c-.2-.4-.6-.6-1-.4l-1.9.8c-.2.1-.4.2-.4.4-.1.2-.1.4 0 .6l1.3 3.2c.9 2.3 2.8 3.5 5.1 3.5 1.1 0 2.3-.3 3.6-.8 6.4-2.6 4.6-7.3 4-8.8-1.5-3.3-3.5-3.9-7.5-5.2zM212.7 90.3l2 .3c.2 0 .4 0 .6-.1.2-.1.3-.3.3-.5l1.4-9 1.6-1.8 3.1 12.1c.1.3.3.5.6.6l2.2.3h.1c.2 0 .4-.1.6-.3.2-.2.2-.5.2-.7l-4-15.3 7.6-8.4c.2-.2.3-.5.2-.8-.1-.3-.3-.5-.6-.5l-2.3-.4c-.3 0-.5.1-.7.3l-7.5 8.7 1.4-9.2c0-.2 0-.4-.1-.6-.1-.2-.3-.3-.5-.3l-2.1-.3c-.4-.1-.8.2-.9.7L212 89.4c-.1.5.2.9.7.9zm37.1 10.9c.1 0 .2.1.3.1.3 0 .6-.2.7-.5l.6-1.4c.1-.2.1-.4 0-.6-.1-.2-.2-.4-.4-.4l-6.5-2.8 8.9-20.5c.2-.4 0-.9-.4-1l-1.9-.8c-.4-.2-.9 0-1 .4l-9.9 22.7c-.1.2-.1.4 0 .6.1.2.2.4.4.4l9.2 3.8zm18.1 11.5c.1.1.3.2.5.2h.1c.2 0 .4-.1.5-.3l6.5-8.6 13.1-7.2c.2-.1.4-.4.4-.6 0-.3-.1-.5-.3-.7l-1.8-1.4c-.3-.2-.6-.2-.9-.1l-9.2 5.4 2.7-10.3c.1-.3 0-.6-.3-.8l-1.8-1.3c-.2-.2-.5-.2-.7-.1-.3.1-.4.3-.5.6l-3.5 14.4-6.5 8.6c-.3.4-.2.8.2 1.1l1.5 1.1zm15.7 14.2c0 .2 0 .4.2.6l1.2 1.5c.1.2.3.3.5.3s.4 0 .6-.2l13.8-10.9s.1 0 .1-.1l-10.8 15.3c-.2.3-.2.7 0 .9l2 2.5c.2.2.4.3.6.3.2 0 .3-.1.5-.2l19.5-15.2c.3-.3.4-.8.1-1.1l-1.3-1.6c-.1-.2-.3-.3-.5-.3s-.4 0-.6.2l-14 11.2 10.9-15.6c.2-.3.2-.7 0-.9l-1.9-2.4c-.1-.2-.3-.3-.5-.3s-.4 0-.6.2l-19.5 15.2c-.1.2-.2.3-.3.6zM182.4 88.8c1.1 1.3 2.7 2 4.9 2 .4 0 .8 0 1.3-.1 3.6-.4 5-2.1 5.5-2.9.9-1.4.9-2.9.7-4l-1.4-13.5c-.2-1.5-.4-3.5-1.8-4.8-1.3-1.2-3.3-1.8-5.7-1.5-2.5.3-4.4 1.2-5.5 2.8-.8 1.1-1 2.5-.8 4.5l1.5 13.9c.1.7.2 2.3 1.3 3.6zm1.5-20.8c.5-.5 1.3-.8 2.3-.9h.5c.7 0 1.4.2 1.9.5 1 .7 1.2 2.2 1.4 4.1l1.3 12c.2 1.7 0 2.7-1.2 3.5-.4.3-1 .4-1.6.5-.8.1-1.5 0-2.1-.3-.9-.4-1.3-1-1.6-3.3l-1.4-13.5c-.3-.8-.3-1.8.5-2.6zm-55.6 47.2c.2.2.4.3.6.3.2 0 .3-.1.5-.2l1.7-1.3c.2-.1.3-.3.3-.5s0-.4-.2-.6l-6.8-9 1.6-1.2 11.2 6.1c.3.1.6.1.9-.1l1.8-1.3c.2-.2.3-.4.3-.7 0-.3-.2-.5-.4-.6l-10.9-5.9c1.6-2.1 1.7-4.2.1-6.3l-2.3-3.1c-3.1-4.1-7.1-1-8.5 0l-4.6 3.5c-.2.1-.3.3-.3.5s0 .4.2.6l14.8 19.8zm-8.1-22c1.5-1.1 2.4-1.4 3.7.3l2.3 3c.5.7.4 1.1.3 1.4-.2.5-.7 1.1-1.5 1.8l-2.4 1.8-4.9-6.5 2.5-1.8zm-11.4 44.3h.1c.2 0 .4-.1.5-.3l3.7-4.7c1.5-1.9 2.1-3.6 1.8-5.2-.2-1.2-.9-2.3-2.2-3.2l-3.3-2.6c-2-1.6-3.6-1.9-5.3-.9 0-1.1-.4-2.2-1.9-3.4l-2.8-2.2c-3.8-3-6.4.4-7.5 1.8l-3.3 4.3c-.3.3-.2.8.1 1.1l19.6 15.1c.2.1.3.2.5.2zm-9.3-13.2-.8 1-6-4.6 1.1-1.5c.8-1.1 1.4-1.6 1.9-1.8.3-.1.7-.1 1.5.5l2.4 1.8c1 .9 2.2 1.8-.1 4.6zm2.6 1.8c1.2-1.5 2.3-2.4 3.2-2.5.7-.1 1.3.3 1.9.7l2.8 2.1c1.6 1.2 2.4 1.9.5 4.3l-1.7 2.2-7.5-5.8.8-1zm48.7-31.6c.3.8.9 2.2 2.2 3.2.9.6 1.9 1 3.1 1 1 0 2.2-.2 3.4-.7 3.3-1.3 4.3-3.4 4.5-4.3.5-1.6 0-3.1-.4-4.1l-5-12.7c-.6-1.4-1.3-3.2-3-4.2-1.5-.9-3.6-.8-5.9.1-2.4.9-4 2.4-4.6 4.2-.4 1.3-.3 2.7.4 4.5l5.3 13zm-1.9-17.2c.3-.6 1-1.2 1.9-1.5.5-.2 1.1-.3 1.6-.3.3 0 .6 0 .8.1 1.1.4 1.8 1.8 2.5 3.6l4.5 11.2c.6 1.6.8 2.6-.2 3.7-.3.4-.8.7-1.4.9-.7.3-1.5.4-2.1.3-1-.2-1.6-.6-2.4-2.7l-5-12.7c-.5-.7-.7-1.7-.2-2.6z" class="st0"/></svg>